<?xml version="1.0" encoding="utf-8"?>
<!-- Generator: Adobe Illustrator 16.0.0, SVG Export Plug-In . SVG Version: 6.00 Build 0)  -->
<!DOCTYPE svg PUBLIC "-//W3C//DTD SVG 1.1//EN" "http://www.w3.org/Graphics/SVG/1.1/DTD/svg11.dtd">
<svg version="1.1" id="Layer_1" xmlns="http://www.w3.org/2000/svg" xmlns:xlink="http://www.w3.org/1999/xlink" x="0px" y="0px"
	 width="114px" height="7px" viewBox="0 0 114 7" enable-background="new 0 0 114 7" xml:space="preserve">
<path fill="none" stroke="#000000" stroke-miterlimit="10" d="M113.8,6.3c-5.7,0-5.7-5.7-11.3-5.7c-5.7,0-5.7,5.7-11.3,5.7
	s-5.7-5.7-11.3-5.7C74,0.7,74,6.3,68.4,6.3c-5.7,0-5.7-5.7-11.3-5.7c-5.7,0-5.7,5.7-11.3,5.7C40,6.3,40,0.7,34.3,0.7
	c-5.7,0-5.7,5.7-11.3,5.7c-5.7,0-5.7-5.7-11.4-5.7c-5.7,0-5.7,5.7-11.4,5.7"/>
</svg>
